{
    "asset" : {
        "generator" : "Khronos glTF Blender I/O v1.5.17",
        "version" : "2.0"
    },
    "scene" : 0,
    "scenes" : [
        {
            "name" : "Scene",
            "nodes" : [
                0,
                1
            ]
        }
    ],
    "nodes" : [
        {
            "mesh" : 0,
            "name" : "Gallo Ocho Fixed Letters Final",
            "translation" : [
                0,
                13,
                0
            ]
        },
        {
            "mesh" : 1,
            "name" : "Gallo Ocho Fixed Letters Final.002",
            "translation" : [
                0,
                13,
                0
            ]
        }
    ],
    "materials" : [
        {
            "doubleSided" : true,
            "name" : "main",
            "pbrMetallicRoughness" : {
                "metallicFactor" : 0,
                "roughnessFactor" : 0.10000000149011612
            }
        }
    ],
    "meshes" : [
        {
            "name" : "Gallo Ocho Fixed Letters Final",
            "primitives" : [
                {
                    "attributes" : {
                        "POSITION" : 0,
                        "NORMAL" : 1
                    },
                    "indices" : 2,
                    "material" : 0
                }
            ]
        },
        {
            "name" : "Gallo Ocho Fixed Letters Final.002",
            "primitives" : [
                {
                    "attributes" : {
                        "POSITION" : 3,
                        "NORMAL" : 4
                    },
                    "indices" : 5,
                    "material" : 0
                }
            ]
        }
    ],
    "accessors" : [
        {
            "bufferView" : 0,
            "componentType" : 5126,
            "count" : 47037,
            "max" : [
                2.8570947647094727,
                -11.538907051086426,
                -6.121568202972412
            ],
            "min" : [
                -6.544178009033203,
                -12.623147964477539,
                -14.460650444030762
            ],
            "type" : "VEC3"
        },
        {
            "bufferView" : 1,
            "componentType" : 5126,
            "count" : 47037,
            "type" : "VEC3"
        },
        {
            "bufferView" : 2,
            "componentType" : 5123,
            "count" : 73257,
            "type" : "SCALAR"
        },
        {
            "bufferView" : 3,
            "componentType" : 5126,
            "count" : 40363,
            "max" : [
                6.498241424560547,
                12.621485710144043,
                -2.8471059799194336
            ],
            "min" : [
                -7.291109085083008,
                -11.56558609008789,
                -15.48709487915039
            ],
            "type" : "VEC3"
        },
        {
            "bufferView" : 4,
            "componentType" : 5126,
            "count" : 40363,
            "type" : "VEC3"
        },
        {
            "bufferView" : 5,
            "componentType" : 5123,
            "count" : 185739,
            "type" : "SCALAR"
        }
    ],
    "bufferViews" : [
        {
            "buffer" : 0,
            "byteLength" : 564444,
            "byteOffset" : 0
        },
        {
            "buffer" : 0,
            "byteLength" : 564444,
            "byteOffset" : 564444
        },
        {
            "buffer" : 0,
            "byteLength" : 146514,
            "byteOffset" : 1128888
        },
        {
            "buffer" : 0,
            "byteLength" : 484356,
            "byteOffset" : 1275404
        },
        {
            "buffer" : 0,
            "byteLength" : 484356,
            "byteOffset" : 1759760
        },
        {
            "buffer" : 0,
            "byteLength" : 371478,
            "byteOffset" : 2244116
        }
    ],
    "buffers" : [
        {
            "byteLength" : 2615596,
            "uri" : "data:application/octet-stream;base64,"
        }
    ]
}
