<svg version="1.1"
      xmlns="http://www.w3.org/2000/svg"
      xmlns:xlink="http://www.w3.org/1999/xlink"  id="snapshot-48586" width="250" height="250" viewBox="0 0 250 250"><desc>This image was made on Patterninja.com</desc><defs>
<!-- image 54053 -->
<g id="transformed-54053" data-image="54053" transform="translate(-92, -125) rotate(0, 92, 125)"><g><svg version="1.1" width="184px" height="250px" viewBox="0 0 184 250"><g id="original-54053"><svg xmlns="http://www.w3.org/2000/svg" version="1.1" viewBox="0 0 300 407" xmlns:xlink="http://www.w3.org/1999/xlink" preserveAspectRatio="xMidYMid meet">
  <path d="M73.3 8.5c-1.1.8-2.6 3.5-3.2 6-.6 2.5-1.4 4.5-1.7 4.5-.3 0-2.4-1.6-4.7-3.5-2.2-1.9-4.6-3.5-5.3-3.5-2.2 0-3.7 4.1-3.5 9.2.1 2.6-.2 4.8-.6 4.8-.5-.1-2.4-1.4-4.3-3-4.2-3.7-6.4-3.8-8.6-.5-1.6 2.4-1.5 3.2.2 10 .4 1.4-.1 2.3-1.7 3-4.1 1.9-4.6 4-1.9 9.2 1.4 2.6 2.6 5.1 2.8 5.5.2.5-.9 1.3-2.5 1.9-9.8 3.7-7.9 12.9 3.4 16.5l5.6 1.8-8 2.7c-4.4 1.4-9.1 3.2-10.4 3.9-2.8 1.4-6.9 5-6.9 6 0 .4 2.7 1 6 1.3 11.8 1.3 22 6.4 22 11.1 0 1.2-1.8 4.7-4 8-4.3 6.3-4.6 8.2-2.8 14.9 1.1 4.3 1.1 4.4-6.5 18.3-5.7 10.5-7.8 15.4-8.3 19.4-.4 3-2.6 10.4-4.9 16.5-5.5 14.4-7.5 23.4-7.5 34.2 0 30.5 19.9 55.5 61 76.5 8.5 4.4 10.9 8.4 18.8 31.6 7 20.5 7.1 17.9-.4 40.5-6.7 20.2-8.8 22-29.9 26.2-7.7 1.5-13.8 3.3-15.5 4.5-2.6 1.8-4.4 2-22.9 2H7v7h189.9l.6-2.1c1.3-4.1-.5-4.4-26.8-4.9l-25.2-.5-7-4c-9.5-5.5-10.8-8.2-10.8-22.4 0-15.4 1.8-26.2 5.9-35.6 1.9-4.4 5.5-13 8-19 8.3-20.2 11.3-25.9 15-28.3 4-2.6 22.6-18.7 26.8-23.1l3-3.1 3.2 11.7c1.8 6.5 4.1 14 5.2 16.8 2.4 5.9 2.4 5.9 16.1 1.4 15.2-5 24.8-11.4 39.2-25.8 14.1-14.1 21.9-25.8 30.1-44.9 15.4-36 12.4-75.2-7.7-99.5C259 95.4 240.4 86.9 218 86.8c-20 0-36.6 6.8-50.2 20.5-6.5 6.6-8.7 9.6-13.3 19-7.4 14.8-8.9 22-8.9 42l-.1 15.8-5-.6c-19.9-2.5-32.5-5.6-32.5-8.2 0-.8 3.2-4.8 7.1-8.8l7-7.3-1.6-8.8c-6.8-37.9-12.4-57.6-21-74.2-2.3-4.5-3.9-8.2-3.4-8.2.4 0 2.2-1.2 3.9-2.7 2.9-2.4 3.1-3 2.6-6.5-.5-3.3-.4-3.8 1.2-3.8 2.5 0 5.2-3.1 5.2-5.9 0-1.3-1.6-3.9-3.5-5.8s-3.5-3.9-3.5-4.4c0-.5 1.1-2.7 2.5-4.8 3.3-4.9 4.3-12.7 2.2-16.7-3.5-6.7-6.7-6.8-13.9-.4-2.6 2.2-5 4-5.5 4s-2.2-2.7-3.8-6.1c-3.8-7.8-6.1-9.3-10.2-6.4zm7.4 7.4c2.7 5.4 5.1 8.1 7.1 8.1.9 0 3.6-1.7 6.1-3.8 6.5-5.4 6.7-5.5 9-3 3 3.2 2.7 8.5-.9 15.3-1.6 3.1-3 6.1-3 6.6s1.6 2.6 3.5 4.8c4.3 4.7 4.4 6.6.5 8.6-2.5 1.3-3 2.1-3 5.3 0 3-.7 4.2-3.7 6.8l-3.7 3.1 5.1 10.9c8 17.2 12.7 33.5 18.2 63.3l3 16.4-6.3 6.8c-3.5 3.7-6.7 7.7-7.1 8.9-1.8 5.5 8.3 9.6 29.7 12.1 7.7.9 10.2.8 11.3-.1 1.2-1 1.5-4.1 1.5-14.9 0-18.5 2-29.1 7.6-41 3.7-8 12.1-19.9 16.7-23.6 12.6-10.6 29.3-16.5 46-16.5 31.6.1 57.2 19.7 65.7 50.2 1.8 6.3 2 9.9 1.9 26.3-.1 17.8-.3 19.6-3.1 29-9.7 33.3-34.2 65.1-60.3 78.3-7 3.5-19.8 8.2-22.5 8.2-1.5 0-2.5-1.9-4.9-9.3-1.6-5.2-3.5-11.6-4.2-14.3-1.1-4.6-3.3-8.4-4.9-8.4-.4 0-5.4 4.2-11.1 9.3-5.7 5.1-13.5 11.7-17.4 14.8-7.7 6.2-9.8 9.5-16.4 26.4-2.1 5.5-6 14.7-8.6 20.5-5.7 12.6-7.5 22.3-7.5 39.5.1 17.6 1.6 20.4 15.4 27.5l7.7 4-56.3-.2c-31-.1-53.4-.4-49.8-.7 3.6-.3 8-1.4 9.8-2.4 1.9-1 8.2-2.7 14-3.8 19.7-3.8 24.7-7.5 30.1-22.5 4.5-12.4 8.1-25.1 8.1-28.5 0-4.9-11.1-36.7-15.1-43.3-3.4-5.7-4.4-6.5-14.2-11.8-15.9-8.5-25.3-15.2-34.8-24.8-9.4-9.5-14.5-17.5-18.3-28.7-4.9-14.3-2.9-35 5.3-54.2 1.7-4 3.6-10.2 4.1-13.8.8-4.9 2.7-9.6 8.2-19.6 7.3-13.5 7.8-15.2 6.3-23.4-.7-3.8-.4-4.7 3.4-10.4 2.2-3.3 4.1-7.2 4.1-8.4 0-5.3-11.8-13-21-13.7-1.6-.1-3-.5-3-.9 0-.7 5.8-3.2 12.7-5.4 10.1-3.2 9.6-6.3-1.9-10.9-4.9-1.9-6.2-6-2.7-8.7 1.3-.9 2.7-1.5 3.1-1.3.3.2 1.3-.5 2.2-1.7 1.3-2 1.2-2.6-1.1-7.3l-2.5-5.2 3.2-3.2c2.5-2.5 3.1-3.8 2.5-5.5-.4-1.2-.9-3.4-1.2-5-.7-3.6 1.8-3.6 6.9-.1 3.7 2.6 3.9 2.6 5.8.9 1.5-1.3 2-3.1 2-6.7 0-2.6.4-4.8.9-4.8.4 0 2.5 1.3 4.6 3 2.1 1.6 4.3 3 5 3 1.2 0 3.6-4.1 5-8.8 1.1-3.8 4.6-2.5 7.2 2.7z" fill="rgba(44, 44, 44, 1)" stroke="none"/>
  <path d="M182.1 297.6c0 1.1.3 1.4.6.6.3-.7.2-1.6-.1-1.9-.3-.4-.6.2-.5 1.3z" fill="rgba(44, 44, 44, 1)" stroke="none"/>
</svg>
</g></svg></g></g>
<!-- /image 54053 -->
</defs><rect x="0" y="0" width="250" height="250" fill="rgba(15, 15, 15, 1)"></rect><use xlink:href="#transformed-54053" transform="translate(-250, -250)"></use><use xlink:href="#transformed-54053" transform="translate(0, -250)"></use><use xlink:href="#transformed-54053" transform="translate(250, -250)"></use><use xlink:href="#transformed-54053" transform="translate(-250, 0)"></use><use xlink:href="#transformed-54053" transform="translate(0, 0)"></use><use xlink:href="#transformed-54053" transform="translate(250, 0)"></use><use xlink:href="#transformed-54053" transform="translate(-250, 250)"></use><use xlink:href="#transformed-54053" transform="translate(0, 250)"></use><use xlink:href="#transformed-54053" transform="translate(250, 250)"></use></svg>