<?xml version="1.0" standalone="no"?>
<!DOCTYPE svg PUBLIC "-//W3C//DTD SVG 20010904//EN"
 "http://www.w3.org/TR/2001/REC-SVG-20010904/DTD/svg10.dtd">
<svg version="1.0" xmlns="http://www.w3.org/2000/svg"
 width="300.000000pt" height="407.000000pt" viewBox="0 0 300.000000 407.000000"
 preserveAspectRatio="xMidYMid meet">
<metadata>
Created by potrace 1.10, written by Peter Selinger 2001-2011
</metadata>
<g transform="translate(0.000000,407.000000) scale(0.100000,-0.100000)"
fill="#ffffff" stroke="none">
<path d="M733 3985 c-11 -8 -26 -35 -32 -60 -6 -25 -14 -45 -17 -45 -3 0 -24
16 -47 35 -22 19 -46 35 -53 35 -22 0 -37 -41 -35 -92 1 -26 -2 -48 -6 -48 -5
1 -24 14 -43 30 -42 37 -64 38 -86 5 -16 -24 -15 -32 2 -100 4 -14 -1 -23 -17
-30 -41 -19 -46 -40 -19 -92 14 -26 26 -51 28 -55 2 -5 -9 -13 -25 -19 -98
-37 -79 -129 34 -165 l56 -18 -80 -27 c-44 -14 -91 -32 -104 -39 -28 -14 -69
-50 -69 -60 0 -4 27 -10 60 -13 118 -13 220 -64 220 -111 0 -12 -18 -47 -40
-80 -43 -63 -46 -82 -28 -149 11 -43 11 -44 -65 -183 -57 -105 -78 -154 -83
-194 -4 -30 -26 -104 -49 -165 -55 -144 -75 -234 -75 -342 0 -305 199 -555
610 -765 85 -44 109 -84 188 -316 70 -205 71 -179 -4 -405 -67 -202 -88 -220
-299 -262 -77 -15 -138 -33 -155 -45 -26 -18 -44 -20 -229 -20 l-201 0 0 -35
0 -35 949 0 950 0 6 21 c13 41 -5 44 -268 49 l-252 5 -70 40 c-95 55 -108 82
-108 224 0 154 18 262 59 356 19 44 55 130 80 190 83 202 113 259 150 283 40
26 226 187 268 231 l30 31 32 -117 c18 -65 41 -140 52 -168 24 -59 24 -59 161
-14 152 50 248 114 392 258 141 141 219 258 301 449 154 360 124 752 -77 995
-135 163 -321 248 -545 249 -200 0 -366 -68 -502 -205 -65 -66 -87 -96 -133
-190 -74 -148 -89 -220 -89 -420 l-1 -158 -50 6 c-199 25 -325 56 -325 82 0 8
32 48 71 88 l70 73 -16 88 c-68 379 -124 576 -210 742 -23 45 -39 82 -34 82 4
0 22 12 39 27 29 24 31 30 26 65 -5 33 -4 38 12 38 25 0 52 31 52 59 0 13 -16
39 -35 58 -19 19 -35 39 -35 44 0 5 11 27 25 48 33 49 43 127 22 167 -35 67
-67 68 -139 4 -26 -22 -50 -40 -55 -40 -5 0 -22 27 -38 61 -38 78 -61 93 -102
64z m74 -74 c27 -54 51 -81 71 -81 9 0 36 17 61 38 65 54 67 55 90 30 30 -32
27 -85 -9 -153 -16 -31 -30 -61 -30 -66 0 -5 16 -26 35 -48 43 -47 44 -66 5
-86 -25 -13 -30 -21 -30 -53 0 -30 -7 -42 -37 -68 l-37 -31 51 -109 c80 -172
127 -335 182 -633 l30 -164 -63 -68 c-35 -37 -67 -77 -71 -89 -18 -55 83 -96
297 -121 77 -9 102 -8 113 1 12 10 15 41 15 149 0 185 20 291 76 410 37 80
121 199 167 236 126 106 293 165 460 165 316 -1 572 -197 657 -502 18 -63 20
-99 19 -263 -1 -178 -3 -196 -31 -290 -97 -333 -342 -651 -603 -783 -70 -35
-198 -82 -225 -82 -15 0 -25 19 -49 93 -16 52 -35 116 -42 143 -11 46 -33 84
-49 84 -4 0 -54 -42 -111 -93 -57 -51 -135 -117 -174 -148 -77 -62 -98 -95
-164 -264 -21 -55 -60 -147 -86 -205 -57 -126 -75 -223 -75 -395 1 -176 16
-204 154 -275 l77 -40 -563 2 c-310 1 -534 4 -498 7 36 3 80 14 98 24 19 10
82 27 140 38 197 38 247 75 301 225 45 124 81 251 81 285 0 49 -111 367 -151
433 -34 57 -44 65 -142 118 -159 85 -253 152 -348 248 -94 95 -145 175 -183
287 -49 143 -29 350 53 542 17 40 36 102 41 138 8 49 27 96 82 196 73 135 78
152 63 234 -7 38 -4 47 34 104 22 33 41 72 41 84 0 53 -118 130 -210 137 -16
1 -30 5 -30 9 0 7 58 32 127 54 101 32 96 63 -19 109 -49 19 -62 60 -27 87 13
9 27 15 31 13 3 -2 13 5 22 17 13 20 12 26 -11 73 l-25 52 32 32 c25 25 31 38
25 55 -4 12 -9 34 -12 50 -7 36 18 36 69 1 37 -26 39 -26 58 -9 15 13 20 31
20 67 0 26 4 48 9 48 4 0 25 -13 46 -30 21 -16 43 -30 50 -30 12 0 36 41 50
88 11 38 46 25 72 -27z"/>
<path d="M1821 1094 c0 -11 3 -14 6 -6 3 7 2 16 -1 19 -3 4 -6 -2 -5 -13z"/>
</g>
</svg>
