<?xml version="1.0" standalone="no"?>
<!DOCTYPE svg PUBLIC "-//W3C//DTD SVG 20010904//EN"
 "http://www.w3.org/TR/2001/REC-SVG-20010904/DTD/svg10.dtd">
<svg version="1.0" xmlns="http://www.w3.org/2000/svg"
 width="300.000000pt" height="409.000000pt" viewBox="0 0 300.000000 409.000000"
 preserveAspectRatio="xMidYMid meet">
<metadata>
Created by potrace 1.10, written by Peter Selinger 2001-2011
</metadata>
<g transform="translate(0.000000,409.000000) scale(0.100000,-0.100000)"
fill="#000000" stroke="none">
<path d="M947 3632 c-10 -10 -17 -33 -17 -50 0 -40 -9 -40 -45 -2 -16 17 -39
30 -52 30 -21 0 -23 -4 -23 -55 l0 -55 -41 30 c-33 23 -45 27 -60 19 -23 -12
-24 -40 -4 -79 14 -27 13 -29 -11 -45 -22 -14 -25 -22 -20 -48 3 -17 13 -39
22 -48 20 -23 11 -49 -16 -49 -12 0 -25 -10 -31 -24 -17 -36 7 -77 61 -103 52
-26 83 -26 88 1 3 15 -1 18 -22 14 -16 -3 -23 -1 -19 5 4 6 0 8 -9 4 -9 -3
-25 3 -36 14 -12 10 -26 19 -32 19 -5 0 -10 11 -10 24 0 17 7 26 23 30 13 3
29 17 35 31 11 23 9 30 -13 59 -28 37 -32 56 -11 56 8 0 18 9 21 20 3 11 11
20 16 20 6 0 1 12 -10 26 -42 54 -18 71 39 29 48 -36 56 -32 59 27 1 29 4 54
5 56 2 2 11 -4 19 -13 9 -8 20 -15 26 -15 6 0 11 -4 11 -8 0 -7 42 -32 54 -32
1 0 3 8 3 18 -1 66 4 82 22 82 21 0 64 -47 58 -64 -5 -15 53 -57 67 -49 6 4
21 20 34 35 13 15 32 28 43 28 40 0 53 -83 20 -137 -24 -38 -18 -68 22 -105
30 -29 29 -48 -4 -48 -16 0 -19 -7 -19 -50 0 -48 -1 -50 -27 -50 -20 0 -36 10
-56 35 -15 19 -40 41 -56 49 -19 10 -8 -5 35 -49 59 -58 79 -95 54 -95 -5 0
-10 4 -10 9 0 5 -9 11 -20 14 -11 3 -18 2 -15 -3 14 -23 -10 -74 -49 -101 -34
-25 -46 -29 -78 -24 -27 5 -38 3 -38 -6 0 -14 -88 74 -106 106 -7 11 -15 17
-19 13 -9 -9 58 -112 86 -132 l23 -16 -24 -1 c-22 -1 -21 -2 6 -8 40 -10 137
2 142 18 2 6 9 8 14 5 6 -4 8 -2 5 3 -4 6 0 17 9 24 21 17 44 63 45 91 1 21 2
20 14 -7 8 -16 14 -25 15 -20 0 17 40 -55 40 -73 0 -10 4 -22 8 -28 5 -5 14
-29 21 -54 8 -25 15 -52 18 -60 4 -13 5 -13 14 0 8 11 9 7 6 -17 -2 -18 0 -33
5 -33 5 0 6 -5 3 -10 -4 -6 -1 -17 5 -25 6 -8 8 -20 4 -26 -4 -7 -3 -9 3 -6 6
4 14 0 17 -9 9 -25 7 -41 -4 -24 -9 13 -10 13 -9 0 0 -8 4 -24 9 -35 8 -19 9
-19 9 -1 1 26 14 12 17 -19 1 -14 -2 -23 -7 -20 -11 8 -11 -43 1 -70 9 -22 13
-14 11 25 -1 23 0 23 8 5 13 -28 14 -88 1 -80 -5 3 -10 1 -10 -4 0 -6 9 -11
20 -11 14 0 20 -7 21 -22 0 -13 2 -31 4 -40 2 -10 0 -18 -4 -18 -4 0 -6 -13
-3 -29 3 -25 1 -29 -30 -33 -100 -17 -656 50 -666 80 -2 6 2 12 8 12 15 0 41
26 33 34 -4 3 -1 6 5 6 6 0 13 14 17 30 4 17 10 30 13 30 4 0 13 15 20 33 7
17 18 40 24 51 7 13 6 21 -2 26 -15 9 -6 15 47 29 50 14 119 77 128 117 7 28
6 28 -12 -5 -10 -18 -31 -41 -48 -50 -16 -9 -32 -19 -35 -22 -3 -3 -19 -8 -37
-11 -37 -5 -52 15 -28 38 20 20 19 23 -5 17 -16 -4 -19 -2 -14 13 4 11 15 27
25 37 11 10 22 30 25 45 4 15 18 41 33 57 14 17 20 25 12 18 -16 -14 -35 -8
-77 24 -17 13 -36 23 -42 23 -7 0 -12 5 -12 11 0 14 77 2 108 -17 26 -17 30
-4 4 19 -25 23 -86 34 -167 30 l-70 -3 34 16 c18 8 54 19 78 23 42 8 74 32 53
39 -22 8 -159 -50 -183 -76 -21 -23 -23 -22 74 -42 58 -11 134 -53 144 -79 3
-8 -11 -41 -31 -74 -36 -58 -37 -61 -25 -106 13 -51 21 -31 -78 -213 -28 -52
-41 -89 -41 -116 0 -35 -25 -125 -49 -177 -40 -85 -55 -218 -37 -318 21 -112
67 -191 164 -287 96 -93 149 -128 295 -194 125 -56 139 -66 173 -121 16 -25
45 -69 64 -98 34 -51 35 -54 34 -147 0 -63 -6 -113 -18 -147 -16 -49 -20 -53
-50 -53 -18 0 -41 -7 -52 -15 -19 -15 -19 -15 0 -26 16 -10 9 -15 -55 -40 -43
-16 -84 -40 -98 -56 l-25 -28 35 -3 c19 -1 67 4 107 11 39 8 72 12 72 9 0 -3
-8 -11 -18 -18 -16 -13 -16 -15 2 -29 24 -18 25 -18 -52 -45 -71 -26 -132 -74
-114 -92 7 -7 35 -7 94 1 189 27 174 29 198 -19 27 -53 55 -52 83 4 24 46 64
72 132 86 93 20 96 37 10 75 -53 24 -65 38 -65 80 0 17 8 26 30 34 37 12 38
23 5 41 -28 15 -28 18 -15 115 6 44 23 96 44 140 19 39 45 113 57 165 27 121
41 147 129 245 39 44 79 92 88 108 20 33 32 35 32 5 0 -12 7 -42 16 -65 19
-48 23 -49 99 -10 121 61 228 160 315 292 53 83 126 228 134 267 2 13 9 37 16
53 20 52 41 207 39 293 -2 98 -14 167 -36 219 -9 21 -17 43 -19 49 -5 25 -60
102 -102 143 -26 24 -76 58 -112 75 -59 28 -74 30 -170 30 -96 0 -110 -2 -170
-30 -130 -62 -251 -207 -286 -344 -29 -114 -34 -149 -34 -252 0 -88 -3 -118
-12 -118 -34 1 -220 28 -225 34 -8 8 20 48 63 90 36 35 37 37 31 89 -14 112
-95 427 -141 545 -14 35 -37 84 -51 109 -24 43 -24 46 -8 59 10 7 22 14 27 14
4 0 6 18 4 40 -2 25 1 40 8 40 20 0 46 38 40 58 -4 10 -19 31 -36 47 l-29 28
21 40 c27 53 21 127 -12 162 -13 14 -27 25 -32 25 -5 0 -28 -18 -53 -41 l-44
-41 -25 50 c-42 82 -68 99 -99 64z m1193 -704 c48 -15 111 -58 103 -71 -4 -6
-1 -7 6 -2 30 18 103 -83 149 -206 25 -68 27 -85 27 -223 0 -111 -3 -150 -13
-154 -6 -2 -10 -8 -6 -13 3 -5 0 -26 -6 -47 -32 -108 -55 -172 -62 -172 -5 0
-8 -7 -8 -16 0 -34 -98 -180 -175 -262 -78 -83 -204 -177 -226 -170 -7 2 -20
24 -30 48 -10 25 -18 38 -18 30 0 -8 8 -35 19 -59 19 -41 19 -68 0 -56 -5 3
-12 0 -16 -6 -4 -7 -15 12 -25 46 -11 31 -17 61 -14 65 9 14 -49 -18 -70 -38
-11 -11 -29 -32 -39 -46 -24 -33 -45 -57 -97 -113 -22 -24 -37 -43 -33 -43 3
0 2 -6 -4 -12 -12 -15 -47 -136 -56 -193 -8 -48 -65 -167 -77 -159 -5 2 -8 -8
-8 -23 1 -61 -14 -243 -20 -243 -8 0 -9 -43 -2 -50 3 -3 11 -14 17 -25 6 -11
35 -32 65 -46 l54 -26 -35 -7 c-19 -4 -48 -12 -63 -18 -23 -9 -31 -8 -38 3 -7
11 -9 11 -9 -3 0 -10 -6 -18 -14 -18 -8 0 -24 -20 -36 -45 -12 -25 -24 -45
-27 -45 -3 0 -3 34 -1 75 3 42 1 78 -3 81 -9 5 -12 -25 -12 -118 0 -55 -7 -54
-32 1 -15 35 -21 40 -41 35 -13 -4 -42 -7 -63 -7 -22 -1 -38 -5 -35 -9 3 -4
-6 -8 -19 -8 -13 0 -45 -3 -71 -6 -37 -6 -45 -4 -41 7 5 15 21 23 114 59 63
24 111 56 111 73 0 9 -3 8 -8 -1 -13 -20 -50 -23 -57 -5 -3 9 -1 21 4 26 6 6
5 14 -3 23 -11 11 -25 10 -77 -2 -35 -8 -75 -13 -89 -11 -21 3 -16 7 34 31 33
15 72 30 88 33 16 3 33 14 39 24 5 11 18 19 29 19 12 0 17 5 14 13 -2 7 9 20
24 29 26 15 30 25 36 79 3 34 6 84 6 110 0 28 5 51 13 55 6 4 9 4 5 -1 -9 -9
29 -85 42 -85 14 0 13 1 -19 64 -16 30 -32 50 -35 43 -3 -7 -3 -2 -1 9 3 13
-1 28 -10 37 -8 9 -15 20 -15 25 0 6 -7 13 -16 16 -9 4 -14 13 -10 22 3 8 2
12 -4 9 -5 -3 -27 26 -49 64 -43 72 -74 98 -156 126 -47 16 -146 63 -155 74
-3 3 -21 15 -40 25 -49 27 -130 98 -130 114 0 7 -4 11 -9 7 -6 -3 -15 3 -20
14 -6 11 -17 25 -24 33 -22 23 -47 67 -47 83 0 8 -10 25 -21 36 -16 16 -18 23
-9 29 8 5 9 10 2 14 -6 4 -14 35 -18 69 -10 81 -9 94 5 143 6 23 15 62 20 85
5 24 22 87 38 139 l29 95 55 -3 c30 -1 61 -5 69 -8 8 -3 33 -7 55 -9 37 -4 92
-10 168 -19 73 -9 146 -16 211 -21 70 -5 88 -11 71 -23 -6 -4 -22 -23 -37 -43
l-27 -36 67 -12 c37 -6 111 -14 165 -16 53 -3 118 -12 145 -21 104 -35 228
-142 270 -232 26 -57 26 -57 33 -27 19 83 110 211 167 234 50 21 93 11 119
-27 44 -67 37 -162 -19 -244 -10 -14 -18 -31 -18 -37 0 -6 -4 -11 -10 -11 -5
0 -10 -4 -10 -10 0 -5 -41 -53 -92 -105 -102 -105 -130 -142 -82 -108 83 60
224 228 224 267 0 8 4 17 9 20 16 10 41 104 41 153 0 174 -158 185 -268 19
-22 -34 -45 -76 -52 -95 l-13 -33 -18 23 c-10 13 -21 39 -25 57 -6 31 -24 55
-24 32 0 -29 -20 6 -26 45 -9 61 -25 68 -19 8 l5 -48 -14 30 c-9 17 -15 36
-16 43 0 8 -8 10 -23 7 -15 -4 -31 1 -45 13 -12 11 -43 27 -69 36 -104 37 -94
19 -89 163 3 94 10 147 26 198 22 74 60 158 73 163 4 2 7 9 7 15 0 13 85 98
134 135 17 12 36 20 44 17 7 -2 10 0 7 5 -8 13 35 30 100 40 58 9 154 4 205
-12z m-920 -2077 c0 -9 -24 -21 -41 -21 -16 0 -10 18 9 23 28 8 32 7 32 -2z
m260 -41 c-18 -11 -24 -6 -16 16 5 14 9 15 19 5 9 -9 9 -14 -3 -21z"/>
<path d="M2023 2786 c-133 -42 -241 -184 -258 -337 -5 -53 -5 -53 14 19 56
203 179 316 336 307 172 -10 270 -130 294 -363 l8 -77 2 61 c6 273 -181 457
-396 390z"/>
<path d="M2085 2703 c-114 -26 -217 -137 -261 -282 -24 -79 -14 -100 10 -24
28 85 76 164 120 198 157 120 333 67 394 -118 12 -37 22 -89 23 -115 0 -42 2
-44 11 -24 13 26 -5 169 -22 186 -6 6 -10 17 -10 25 0 9 -16 37 -34 62 -55 74
-147 111 -231 92z"/>
<path d="M2082 2494 c-49 -18 -108 -75 -140 -134 -31 -58 -28 -75 4 -20 121
213 346 172 383 -70 l10 -65 -3 80 c-3 61 -9 90 -27 124 -45 82 -138 117 -227
85z"/>
<path d="M2095 2344 c-49 -25 -95 -75 -127 -138 -39 -78 -30 -81 13 -5 49 88
98 129 153 129 57 0 89 -26 114 -93 22 -58 38 -64 35 -12 -7 102 -103 163
-188 119z"/>
<path d="M1751 2194 c0 -11 3 -14 6 -6 3 7 2 16 -1 19 -3 4 -6 -2 -5 -13z"/>
<path d="M1822 2165 c0 -16 2 -22 5 -12 2 9 2 23 0 30 -3 6 -5 -1 -5 -18z"/>
<path d="M2302 2028 c-7 -7 -12 -18 -12 -25 0 -6 -6 -16 -13 -20 -7 -4 -21
-25 -31 -46 -9 -20 -38 -68 -63 -105 -25 -37 -38 -60 -29 -53 21 18 106 135
106 146 0 5 6 16 14 24 13 14 48 91 42 91 -1 0 -7 -5 -14 -12z"/>
<path d="M1982 1948 c-17 -11 -32 -21 -32 -23 0 -7 36 7 54 21 31 22 14 25
-22 2z"/>
<path d="M2060 1956 c19 -6 41 -15 48 -20 11 -7 12 -4 3 13 -9 16 -21 21 -49
20 l-37 -1 35 -12z"/>
<path d="M1906 1861 c3 -20 1 -49 -5 -64 -6 -16 -7 -26 -2 -23 9 6 31 83 31
109 0 7 -7 14 -15 14 -11 0 -13 -9 -9 -36z"/>
<path d="M1862 1710 c-17 -27 -15 -35 4 -16 8 9 14 21 12 26 -2 6 -9 1 -16
-10z"/>
<path d="M1352 990 c0 -14 2 -19 5 -12 2 6 2 18 0 25 -3 6 -5 1 -5 -13z"/>
<path d="M1342 925 c0 -16 2 -22 5 -12 2 9 2 23 0 30 -3 6 -5 -1 -5 -18z"/>
<path d="M1313 822 c-10 -40 -3 -76 12 -53 11 18 14 66 6 80 -5 8 -12 -1 -18
-27z"/>
<path d="M1287 763 c-4 -3 -7 -13 -7 -22 1 -13 3 -13 11 2 11 19 8 33 -4 20z"/>
<path d="M1228 723 c6 -2 18 -2 25 0 6 3 1 5 -13 5 -14 0 -19 -2 -12 -5z"/>
<path d="M1441 684 c0 -11 3 -14 6 -6 3 7 2 16 -1 19 -3 4 -6 -2 -5 -13z"/>
<path d="M978 3259 c19 -6 54 -30 78 -54 39 -39 43 -41 29 -15 -19 37 -82 80
-115 79 -22 -1 -21 -2 8 -10z"/>
<path d="M820 3220 c-6 -11 -8 -20 -6 -20 3 0 10 9 16 20 6 11 8 20 6 20 -3 0
-10 -9 -16 -20z"/>
<path d="M940 3193 c8 -3 24 -10 35 -16 18 -9 19 -9 6 6 -7 10 -23 17 -35 16
-14 0 -16 -2 -6 -6z"/>
<path d="M1006 3175 c4 -8 11 -15 16 -15 6 0 5 6 -2 15 -7 8 -14 15 -16 15 -2
0 -1 -7 2 -15z"/>
<path d="M917 3143 c-10 -16 21 -25 44 -13 27 15 24 21 -5 10 -17 -6 -26 -5
-29 3 -2 8 -5 8 -10 0z"/>
<path d="M1020 3119 c0 -5 5 -7 10 -4 6 3 10 8 10 11 0 2 -4 4 -10 4 -5 0 -10
-5 -10 -11z"/>
<path d="M975 3100 c-16 -7 -17 -9 -3 -9 9 -1 20 4 23 9 7 11 7 11 -20 0z"/>
<path d="M870 3093 c0 -14 46 -36 62 -30 8 3 6 6 -6 6 -11 1 -28 8 -38 18 -10
9 -18 12 -18 6z"/>
<path d="M942 2885 c0 -16 2 -22 5 -12 2 9 2 23 0 30 -3 6 -5 -1 -5 -18z"/>
<path d="M1320 2485 c0 -8 4 -15 10 -15 5 0 7 7 4 15 -4 8 -8 15 -10 15 -2 0
-4 -7 -4 -15z"/>
<path d="M1090 911 c0 -6 8 -12 18 -13 57 -5 79 -4 102 3 22 7 21 7 -10 7 -19
-1 -52 2 -72 6 -25 5 -38 3 -38 -3z"/>
<path d="M1052 893 c-9 -10 -43 -35 -75 -56 -31 -21 -57 -43 -57 -48 0 -6 -4
-8 -9 -4 -5 3 -12 1 -16 -5 -3 -6 -32 -26 -63 -46 -31 -20 -61 -41 -67 -48 -5
-6 -35 -27 -65 -46 -30 -19 -68 -47 -85 -61 -29 -26 -30 -29 -25 -90 4 -52 8
-64 23 -65 12 -2 13 -1 2 3 -12 4 -15 17 -11 71 5 79 4 74 14 68 5 -3 22 8 38
25 16 17 45 40 64 51 19 12 47 33 63 46 15 14 27 22 27 16 0 -5 6 -2 13 6 16
19 73 60 85 60 5 0 19 11 32 25 13 14 29 25 36 25 7 0 17 6 21 13 9 14 65 52
74 50 3 -1 6 5 6 13 0 18 -3 18 -25 -3z"/>
<path d="M1516 861 c-3 -4 6 -6 19 -3 14 2 25 6 25 8 0 8 -39 4 -44 -5z"/>
<path d="M1565 850 c-14 -7 -8 -8 20 -3 22 3 42 7 44 9 9 8 -45 2 -64 -6z"/>
<path d="M1640 839 c-12 -9 -12 -10 4 -5 10 3 54 -1 97 -10 61 -12 88 -13 117
-5 l37 10 -35 -3 c-19 -2 -71 3 -115 10 -95 17 -86 16 -105 3z"/>
<path d="M1880 810 c-20 -7 -16 -8 20 -7 l45 2 6 -50 6 -50 -1 55 c-1 51 -3
55 -26 57 -14 1 -36 -2 -50 -7z"/>
<path d="M1930 699 c0 -22 -45 -80 -55 -71 -5 4 -5 2 -2 -4 4 -7 -5 -19 -19
-29 -14 -9 -23 -19 -20 -22 3 -3 -2 -12 -12 -19 -9 -7 -14 -15 -11 -19 4 -3
37 31 74 76 49 59 64 84 56 92 -8 8 -11 7 -11 -4z"/>
<path d="M828 523 c7 -3 16 -2 19 1 4 3 -2 6 -13 5 -11 0 -14 -3 -6 -6z"/>
<path d="M1775 510 c-10 -11 -15 -20 -11 -20 4 0 -6 -13 -21 -29 -77 -80 -114
-121 -113 -127 1 -4 -4 -10 -11 -15 -8 -4 -11 -11 -7 -14 3 -3 23 15 44 41 22
26 63 72 91 103 29 31 53 62 53 69 0 17 -4 15 -25 -8z"/>
<path d="M655 420 c-13 -5 -14 -9 -5 -9 8 0 24 4 35 9 13 5 14 9 5 9 -8 0 -24
-4 -35 -9z"/>
<path d="M710 410 c-12 -8 -10 -10 10 -9 14 1 45 -2 70 -5 28 -4 39 -3 30 3
-25 15 -94 22 -110 11z"/>
<path d="M1558 413 c6 -2 18 -2 25 0 6 3 1 5 -13 5 -14 0 -19 -2 -12 -5z"/>
<path d="M848 383 c7 -3 16 -2 19 1 4 3 -2 6 -13 5 -11 0 -14 -3 -6 -6z"/>
<path d="M900 380 c-21 -7 -21 -8 -5 -9 11 0 27 4 35 9 18 11 5 11 -30 0z"/>
<path d="M955 370 c-16 -7 -13 -9 15 -7 19 0 51 -2 70 -6 23 -5 30 -5 20 2
-24 15 -83 21 -105 11z"/>
<path d="M1088 343 c6 -2 18 -2 25 0 6 3 1 5 -13 5 -14 0 -19 -2 -12 -5z"/>
<path d="M1133 334 c2 -3 32 -7 67 -9 34 -2 76 -7 93 -10 28 -5 30 -4 12 6
-18 11 -183 23 -172 13z"/>
<path d="M1338 303 c6 -2 18 -2 25 0 6 3 1 5 -13 5 -14 0 -19 -2 -12 -5z"/>
<path d="M1400 300 c-23 -7 -23 -8 -3 -9 12 -1 25 4 28 9 3 6 5 10 3 9 -2 -1
-14 -5 -28 -9z"/>
<path d="M1438 288 c-8 -5 0 -7 22 -7 32 1 78 -5 107 -16 6 -2 19 2 29 9 13
10 14 15 4 21 -8 5 -11 4 -6 -3 10 -17 -16 -20 -64 -7 -51 15 -74 15 -92 3z"/>
</g>
</svg>
